<?xml version="1.0" encoding="UTF-8"?><svg id="Layer_1" xmlns="http://www.w3.org/2000/svg" viewBox="0 0 463.09 450.02"><defs><style>.cls-1{fill:#1bc2c1;}.cls-2{fill:#d8f7f9;}.cls-3{fill:#f4fafb;}.cls-4{fill:#fcfdfd;}.cls-5{fill:#2dbdc1;}.cls-6{fill:#a38b95;}.cls-7{fill:#19c3c0;}.cls-8{fill:#28c3c8;}.cls-9{fill:#a57788;}.cls-10{fill:#1dc3c2;}.cls-11{fill:#a5a5a5;}.cls-12{fill:#19c1c7;}.cls-13{fill:#f6e39a;}.cls-14{fill:#fcfbf9;}.cls-15{fill:#5be1e6;}.cls-16{fill:#27c4c4;}.cls-17{fill:#5ee0e5;}.cls-18{fill:#eaac62;}.cls-19{fill:#f7e894;}.cls-20{fill:#eca461;}.cls-21{fill:#767674;}.cls-22{fill:#f1ac68;}.cls-23{fill:#35bebe;}.cls-24{fill:#030605;}.cls-25{fill:#1ebfb7;}.cls-26{fill:#fbdd5b;}.cls-27{fill:#4a0c1c;}.cls-28{fill:#f1dc82;}.cls-29{fill:#18c4c6;}.cls-30{fill:#707070;}.cls-31{fill:#f8a155;}.cls-32{fill:#f6ea9a;}.cls-33{fill:#eaa456;}.cls-34{fill:#1cc1ba;}.cls-35{fill:#eeab6b;}.cls-36{fill:#a27586;}.cls-37{fill:#f69e59;}.cls-38{fill:#fcdd58;}.cls-39{fill:#33c4c7;}.cls-40{fill:#1ac1c2;}.cls-41{fill:#e1aa6a;}.cls-42{fill:#e5b26f;}.cls-43{fill:#e5c3d2;}.cls-44{fill:#e4a865;}.cls-45{fill:#5ce0e5;}.cls-46{fill:#fbf1b8;}.cls-47{fill:#e7b36e;}.cls-48{fill:#f7e78a;}.cls-49{fill:#e6b572;}.cls-50{fill:#f0a465;}.cls-51{fill:#fcdd59;}.cls-52{fill:#19c6c4;}.cls-53{fill:#fbfdfa;}.cls-54{fill:#f19f5c;}.cls-55{fill:#e1a958;}.cls-56{fill:#fae08b;}.cls-57{fill:#fcdd5a;}.cls-58{fill:#e5c3d3;}.cls-59{fill:#3bc7c0;}.cls-60{fill:#fcf5c5;}.cls-61{fill:#fbdd5a;}.cls-62{fill:#f39e5e;}.cls-63{fill:#fbf7ea;}.cls-64{fill:#fadc60;}.cls-65{fill:#23c1c1;}.cls-66{fill:#f8df93;}.cls-67{fill:#6d6d6d;}.cls-68{fill:#a78895;}.cls-69{fill:#f4faf9;}.cls-70{fill:#eaa164;}.cls-71{fill:#f4e594;}.cls-72{fill:#f8f2bc;}.cls-73{fill:#34c8c2;}.cls-74{fill:#5ce0e6;}.cls-75{fill:#19c0c7;}.cls-76{fill:#1a1b1b;}.cls-77{fill:#25c5c5;}.cls-78{fill:#fada5d;}</style></defs><path class="cls-24" d="M463.09,347.05c-23.57,32.23-53.45,57.14-88.98,75.25-35.51,18.09-73.31,27.16-113.2,27.7-116.49,1.58-213.8-74.04-247.43-175.62C-23.56,162.47,20.54,55.77,87.35,0c-9.64,15.36-18.84,30.94-25.6,47.82,.46,1.73-.39,3.19-.92,4.72-.12,.29-.24,.59-.36,.88-1.41,3.4-2.93,6.77-3.95,10.3h0c-.34,1.16-.62,2.33-.81,3.53-.03,.13-.05,.26-.07,.39-.02,.06-.03,.11-.05,.17-3.79,12.82-7.17,25.74-9.26,38.95t0,.02c-.09,.51-.23,.99-.41,1.45-1.18,3.19-3.98,5.11-6.6,7.12-3.66,2.82-7.51,5.44-10.43,9.07-2.14,2.67-4.02,5.53-4.1,10.42,3.12-4.35,4.72-8.86,9.76-9.46,.26,.01,.52,.01,.78-.02,1.55-.04,3.14-.31,4.63-.01,.91,.18,1.78,.57,2.59,1.37-1.52,27.64,.12,55.01,6.96,81.95,1.67,2.43,.3,4.82-.19,7.17-1.61,7.66-.66,9.83,5.93,13.01,23.51,67.2,67.05,116.91,130.45,149.21,3.64,1.86,5.67,3.34,5.61,8.23-.19,14.95,11.2,25.73,27.52,27.22,6.49,.59,13.01,.69,19.29-1.05,8.16-2.26,16.23,.18,24.31-.16,13.93-.57,27.91,.68,41.8-1,8.63-1.05,16.64,2.81,25.19,2.58,14.04-.38,26.77-3.13,34.85-16.13,.88-1.42,2.13-1.89,3.63-2.31,34.72-9.6,66.2-25.5,94.08-48.4,.21-.18,.54-.23,1.12,0Z"/><path class="cls-24" d="M376.18,305.35c4.89,1.04,9.72,2.28,13.78,5.35,2.15,1.63,4.26,3.69,2.62,6.72-1.67,3.07-4.6,3.04-7.42,1.96-3.7-1.42-7.15-3.37-11.15-4.13-9.46-1.8-14.98,1.82-16.9,11.3-1.82,8.97,.49,17.5,2.64,26.04,2.14,8.53,4.73,16.92,5.62,25.75,2.3,22.82-13.26,31.43-29.35,33.1-7.14,.74-14.27,.17-21.28-1.69-8.77-2.33-17.51,.52-26.27,.4-4.66-.06-9.28-.22-13.83-1.21-2.01-.44-3.94-1.33-4.19-3.69-.23-2.16,1.29-3.43,3.12-3.97,3.17-.93,2.64-2.82,1.55-4.93-1.98-3.83-3.95-7.66-6.02-11.44-2.3-4.19-3.44-8.61-3.05-13.4,.48-5.91,4.1-9.1,9.3-11.13,7.03-2.74,7.84-3.86,6-11.21-4.74-18.92-3.37-37.2,4.85-54.91,1.21-2.6,1.45-4.58-.67-7.15-3.33-4.05-3.85-9.09-2.77-14.2,1.36-6.42,2.12-12.8-.43-19.13-.3-.75-.27-1.64-.36-2.46-.28-2.61-1.18-5.67,1.63-7.21,2.72-1.49,4.5,1.24,6.42,2.67,1.86,1.39,3.63,2.92,5.4,4.43,1.86,1.59,3.76,2.6,6.36,1.63,1.2-.45,2.71-.67,3.94-.39,7.56,1.75,12.58-2.11,17.14-7.33,1.51-1.73,3.37-3.85,5.92-2.59,2.62,1.29,2.7,4.35,2.12,6.64-2.13,8.35-.96,16.42,.95,24.6,.87,3.74,.36,7.71-1.86,11.05-1.94,2.92-2.19,5.67-.62,8.83,8.95,18.06,10.36,36.81,5.29,56.25-1.62,6.2-.47,7.8,5.51,10.23,9.26,3.75,12.55,10.52,8.95,19.93-2.12,5.54-5.32,10.67-7.88,16.06-.58,1.22-1.91,2.83-.46,4.09,1.17,1.02,2.52-.32,3.65-.82,7.82-3.49,11.38-9.87,11.75-18.16,.39-8.46-2.38-16.36-4.57-24.37-2.98-10.91-5.9-21.82-3.62-33.36,1.84-9.33,6.67-15.76,16.2-18.1,4-1.86,8.01-1.84,12.02-.05Z"/><path class="cls-24" d="M198.26,315.43c9.48,5.42,13.27,15.02,11.58,28.45-1.09,8.62-3.77,16.83-5.92,25.18-1.41,5.48-2.6,10.97-1.87,16.72,1.06,8.37,5.81,13.39,13.89,15.87,1.05-3.16-.9-5.28-2.03-7.55-2.14-4.3-4.9-8.29-6.14-13.02-2.03-7.78,.69-13.33,8.12-16.42,6.6-2.75,7.15-3.2,5.49-9.97-4.34-17.78-2.99-34.91,5-51.43,1.17-2.42,1.55-4.62-.11-7-2.78-3.99-2.81-8.6-1.78-12.99,1.47-6.25,2.3-12.37,.78-18.72-.41-1.72-.26-3.67,.03-5.45,.48-2.92,2.36-3.35,4.78-2.05,.57,.31,1.16,.76,1.49,1.3,5.09,8.29,13.75,7.04,21.55,8.13,1.67,.23,2.88-.65,4.04-1.59,2.08-1.66,4.04-3.47,6.17-5.06,1.53-1.14,3.08-3,5.26-1.63,1.77,1.11,1.99,3.29,1.46,4.98-2.65,8.35-1.94,16.71-.71,25.15,.38,2.66-.01,5.56-1.8,7.6-2.96,3.4-2.48,6.48-.77,10.3,6.8,15.25,7.82,30.98,3.81,47.25-1.02,4.15-1.69,7.92-4.42,11.55-4.06,5.41-2.87,11.77-.42,17.61,1.92,4.58,4.45,8.89,6.75,13.3,.63,1.2,1.63,2.55-.06,3.41-5.17,2.61-5.18,6.28-2.1,10.62-4.65,0-8.94,.32-13.16-.07-7.48-.69-14.8-.81-22.22,.94-6.33,1.49-12.86,1.27-19.3-.13-17.17-3.75-24.83-15.2-22.04-32.47,1.61-10.02,5.16-19.55,6.96-29.52,.69-3.81,.94-7.6,.8-11.41-.45-11.89-7.33-16.83-18.64-13.34-2.67,.82-5.11,2.39-7.78,3.25-2.46,.8-5.14,.9-6.46-1.97-1.17-2.55,.32-4.37,2.24-5.99,2.22-1.88,5.03-2.52,7.51-3.84,6.68-2.32,13.36-2.35,20.04,.04Z"/><path class="cls-45" d="M269.75,64.82c3.74-7.75,7.68-15.42,11.42-23.17,.57-1.19,2.35-4.07-.47-3.57-4.51,.79-9.8-.77-13.51,3.35l-.03,.03c-3.6,3.97-5.07,9.13-7.6,13.69-.12,.2-.23,.4-.35,.6-.12,.22-.25,.43-.38,.64-2.7,5.59-5.48,11.13-8.31,16.65-.52,1.01-.84,2.19-2.01,2.74,.03-.15,.1-.32,.07-.45-.04-.15-.18-.27-.27-.41-1.95-.2-2.45-1.75-3.3-3.2-2.23-3.78-4.9-7.12-8.69-9.7-2.21-1.5-3.01-.73-4.19,.74-.95,4.4,.48,9.55-3.98,12.87-1.93,2.22-3.1,5.21-6.02,6.44-10.45,4.44-20.62,3.61-30.56-1.7-2.01-1.07-2.48-2.12-1.45-4.33,6.62-14.24,11.9-29.07,19.09-43.06,4.92-9.57,10.26-18.85,18.09-26.45,1.29-1.25,4.07-1.86,3.03-4.43-.94-2.33-3.42-1.69-5.31-1.64-12.2,.35-22.64,5.75-32.7,11.9-5.88,3.59-11.74,7.41-15.09,13.86-.68,1.69-1.75,3.2-2.37,4.9-2.67,7.4,.98,13.22,8.38,13.45,3.02-1.26,3.38-3.23,1.6-5.83-2.83-4.11-1.63-8.44,.89-11.66,8.88-11.36,21.48-16.46,35.02-19.75-9.01,8.53-15.99,18.47-22.46,28.87-6.19,9.96-12.73,19.7-19.19,29.49-1.25,1.91-2.5,4.03-5.49,1.95-12.03-8.39-24.07-2.86-31.33,8,.23,.68,.08,1.31-.25,1.9-3.15,5.58-4.77,11.63-4.98,17.97-.36,10.97,7.7,26.02,23.68,19.72,.47-.18,.97,.02,1.43,.21,8.66-4.94,14.08-12.82,19.13-21.04,1-1.63,1.36-3.92,4.01-3.84,2.89-2.24,4.1,.73,5.55,2.03,8.88,7.9,18.95,12.72,31.04,13.09,3.21,.1,5.94-2.43,9.21-1.27,2.13-.11,3.41-1.83,5.15-2.68,1.93-.95,2.87-3.91,5.78-2.84,.91,.09,1.19-2.61,2.57-.57,2.1,3.13,5.34,3.32,8.65,3.28,10.33-3.55,25.07-18.3,25.69-26.24-3.39,3.22-6.5,6.18-10.36,8.13-1.5,.76-3.17,1.78-4.63,.58-1.43-1.18-.92-3.12-.51-4.7,1.35-5.17,4.01-9.79,6.31-14.55Zm-112.25,15.82c-3.74-.04-5.99-1.87-6.15-5.63-.19-4.21,2.61-4.77,5.98-4.41,.65,.07,1.31-.03,1.97-.04,3.9,.6,7.05,2.65,9.96,5.15-3.04,3.73-7.13,4.98-11.76,4.93Z"/><path class="cls-74" d="M50.43,112.28c-.21,.15-.22,.58-.43,1.19,12.3-.98,24.5-1.59,36.59-3.06,7.2-.88,12.88-4.51,15.58-12.1,2.26-6.36,3.73-6.28,8.17-1.3,3.83,4.31,4.21,9.35,2.01,13.91-3.6,7.44-9.37,13.16-17.23,16.4-5.31,1.01-10.47,2.42-16.04,2.45-8.4,.04-16.47-1.72-24.62-3.08-4.86-.81-9.68-1.65-14.51-1.34-2.19,.13-4.38,.51-6.58,1.23-2.84,1.57-5.4,3.55-5.88,6.92-.32,2.21-2.66,1.16-3.48,3.65-1.09-6.53,1.31-10.81,4.77-14.7,3.79-4.24,8.64-7.2,13.1-10.61,1.51-1.16,2.48-2.47,3.18-4.12,.42-.31,.84-.62,1.26-.94,9.29-6.86,17.91-14.55,26.75-21.99,9.08-7.64,16.92-16.29,23.59-26.06,.47-.7,1.15-1.17,1.92-1.51,.5-.57,.97-1.16,1.39-1.77,1.92-2.78,3.05-5.95,3.81-9.22,.18-.75,.27-1.5,.28-2.24,.05-2.23-.69-4.36-2.63-5.88-1.05-.83-2.18-1.4-3.36-1.76t-.02-.01c-1.26-.38-2.58-.53-3.93-.51-.99,.01-1.98,.11-2.99,.27,.14,.3,.41,.06,.61,.13,.31,.11,.57,.27,.76,.57,0,.02-.01,.04-.02,.05,0,.02,0,.03-.01,.04-.74,2.57-3.26,2.49-5.12,3.23-3.92,1.56-6.77,4.11-8.54,7.93-1.26,2.71-.82,4.85,1.93,6.29,2.67,1.4,2.9,3.72,1.65,5.94-3.06,5.4-6.55,10.47-13.22,11.94-.48-.09-.97-.14-1.45-.16-1.99-.13-4.01,.03-5.91-.68-.33-.13-.64-.27-.94-.44-2.69-1.42-4.27-4.19-4.35-7.21h0c-.03-.79,.05-1.59,.23-2.38,.74-3.24,3.12-5.85,3.41-9.23,.53-1.44,1.06-2.87,1.59-4.3,1.19,.94,1.76-.1,2.4-.79,8.62-9.24,19.33-15.02,31.5-17.77,6.85-1.55,13.89-1.39,19.93,3.39,8.33,6.61,7.97,15.54-.14,25.59-15.18,18.83-34.71,32.45-54.1,46.29-3.63,2.59-7.29,5.15-10.91,7.75Z"/><path class="cls-38" d="M233.02,143.34c-1.06-3.38-4.58-2.95-7.14-3.52-5.13-1.15-10.51-.19-15.25,1.19-13.53,3.94-25.43,11.15-35.71,20.86-4.66,4.41-5.75,4.3-9.66-1.27-1.54-3.32-1.63-6.62,.06-9.92,.9-.72,1.74-1.56,2.71-2.16,3.2-1.98,3.25-3.74,.18-6.08-4.47-3.43-10.87-1.86-14.97,3.97-4.71,9.08-3.38,15.61,4.3,21.17,2.15,1.56,4.61,2.48,7,3.55,1.46,.66,1.76,1.45,.3,2.45-.48,.65-.95,1.31-1.43,1.96,.14,.5,.02,.9-.18,1.28-.16,.32-.39,.63-.58,.95-4.25,7.2-6.87,14.93-7.6,23.3-.99,11.3,5.88,20.89,16.34,23.09,1.9,.4,3.76-.45,5.59-.13h.02c.4,.07,.8,.2,1.2,.41,3.69-.46,6.9-2.31,9.95-4.11,11.3-6.64,19.08-15.72,19.02-29.71-.55-.55-1.16-.6-1.81-.36-.03,.01-.06,.02-.09,.04-.05,.02-.11,.04-.16,.07-1.63,5.31-3.02,10.74-7.9,14.25-3.11,2.09-5.7,4.78-9.24,6.42-6.47,2.98-11.49,1.08-12.92-5.94-2.48-12.17,3.65-21.78,9.92-31.27,.51-.77,1.13-1.18,2.02-1.15,4.21,.13,8.03-1.92,12.16-2.18-.01-2.05-1.42-2.41-2.81-2.78-.29-.08-.58-.15-.85-.25-.01,0-.03-.01-.04-.01-2.11-.21-3.94-.49-1.5-3.03,7.67-8,15.21-16.18,27.42-16.79,.83-.04,1.58-.42,2.08-1.15,0-.04-.02-.09-.03-.13,0-.02-.01-.04-.02-.06-.1-.43-.26-.72-.46-.9,1.54,.08,2.49,.32,3.23,1.06,.65,.64,1.15,1.64,1.74,3.23,.29,.77,.6,1.67,.97,2.74,0,.05,.03,.11,.05,.16,.01,.01,.03,.02,.04,.03,.42,.32,.83,.31,1.25-.02,3.08-2.43,3.92-5.7,2.8-9.26Zm-12.74,2.03h.13c.16,.55-.78,0-.13,0Z"/><path class="cls-57" d="M106.13,183.36c1.55-2.43,.67-2.86-1.53-2.89-5.4-.05-11.18-1.02-13.83,5.93-3.28-5.44-5.7-6.89-10.34-5.55-2.61,.76-5.25,1.68-7.64,3.3-7.98,5.37-14.23,12.3-19.52,20.23-1.04,1.56-1.46,3.8-3.77,4.29,.05,4.61-2.82,8.7-2.22,13.48,.67,5.4,2.33,7,7.96,6.7,5.75-.13,10.27-3.25,14.9-6.1,3.59,2.84,6.84,6.76,12.25,3.88,9.07-3.92,14.67-11.22,19.6-20.11-4.26,.73-5.93,4.2-8.8,5.85-1.35,.78-2.54,3.12-4.15,1.8-1.76-1.44-.17-3.06,.86-4.68,5.5-8.65,10.71-17.49,16.23-26.13Zm-31.28,27.16c-4.61,5.54-7.15,7.9-11.55,5.05-.05-2.35-.1-4.71-.15-7.07,3.79-9.16,9.96-16.35,18.09-21.93,6.8,.62,3.2,5.8,3.96,9.06-3.42,4.99-6.5,10.25-10.35,14.89Z"/><path class="cls-15" d="M374.19,10.92c-2.83,1.36-6.14,2.75-7.03,6.46-3.64,5.6-4.94,12.28-8.22,18.05-2.07,3.36-5.56,3.67-8.98,4.28-2.98,.52-6.32,.12-8.53,2.93,4.88,2.08,9.62,1.04,14.34-.64,1.51-.54,3.87-1.55,3.73,1.06-.23,4.53,.27,9.35-2.53,13.45-.81,1.8-1.58,3.6-2.42,5.38-1.38,2.94-3.64,4.65-6.98,4.66-2.23,0-3.9-1.02-4.29-3.27-.35-2.03-.07-3.84,2.43-4.72,2.76-.98,5.32-2.71,3.67-6.15-1.49-3.13-4.44-4.62-7.83-3.43-4.92,1.73-9.25,4.43-11.4,9.57-.4,1.69-.73,3.37-.96,5.07-.28,2.04-.42,4.09-.35,6.19,.02,.66,.07,1.3,.15,1.93v.02c1.17,10.05,9.05,15.89,19.29,13.85,.65-.13,1.29-.29,1.95-.04,6.09-2.2,10.31-6.51,13.1-12.15,5.31-10.72,6.01-22.32,5.8-34-.07-3.72,.83-6.65,3.52-9.33,3.83-3.83,6.14-8.64,7.29-13.91,.86-3.95-2.26-6.94-5.75-5.26Zm-3.88,15.01c-.1-3.47,.44-7.58,4.8-9.17,.39,3.24-1.7,5.87-2.2,8.89-.98-.2-2.51,3.1-2.6,.28Z"/><path class="cls-45" d="M329.19,63.62c-.04-1.01-.07-2.02-.05-3.03-5.93,2.53-8.09,9.13-13.34,12.4-2.88,1.79-5.61,4.72-9.34,2.66-3.64-2.01-4-5.86-4.02-9.56-.01-1.96,.28-3.97,1.79-5.5,.7-1.2,1.71-1.37,2.86-.77,2.19,1.13,4.33,.58,6.47-.15,8.26-4.79,13.19-11.82,13.54-21.46,.24-6.46-3.78-9.26-9.8-6.86-11.94,4.76-20.96,12.92-26.91,24.38-.71,3.63-2.95,6.63-4.16,10.05-2.17,6.12-4.28,12.22-2.88,18.88,1.63,7.71,4.69,9.93,12.47,9.02,1.15-.14,2.32-.05,3.48-.02,12.96-5.59,20.4-16.58,27.36-28.52,1.13,3.4-.4,6.71,1.48,9.47,.4-.95,.67-1.89,.85-2.85v-.02c.5-2.68,.31-5.4,.2-8.12Zm-22.51-13.77c1.79-6.48,6.77-10.69,13.52-11.31,1.56,1.19,.72,2.67,.49,4.08-2.21,4.47-5.44,8.02-9.45,10.97-1.43,1.05-2.55,.48-3.63-.2-1.29-.82-1.33-2.1-.93-3.54Z"/><path class="cls-57" d="M331.15,202.1c2.5-5.63,6.81-10.06,10.05-15.19,1.67-2.64,3.27-5.33,4.94-7.96,.47-.74,.88-1.47,.28-2.25-.79-1.04-1.87-.48-2.74-.19-2.45,.81-4.39,2.64-5.68,4.6-6.5,9.94-13.32,19.68-19.13,30.07-2.59,4.63-5.82,9.05-12.39,7.6-1.22-.27-2.94,.74-3.6-.69-.55-1.19,.45-2.48,1.17-3.62,5.82-9.2,11.52-18.47,17.48-27.57,1.2-1.84,2-3.8,2.87-5.73,1.38-3.05,.61-4.86-3.11-4.51-1.91,.6-2.97,.33-2.03-1.99,2.26-1.29,4.41-2.84,6.79-3.81,4.46-1.8,7.62,.01,9.96,5.63,3.71-3.07,7.48-5.96,12.08-7.31,4.4-1.3,8.45-1.1,11.17,3.36,1.25,2.69,1.49,5.36-.18,7.98-3.88,6.37-7.84,12.7-11.58,19.15-.68,1.17-1.08,3.12,.03,4.23,1.93,1.94,3.19-1.84,5.57-.84-3.37,6.25-7.37,11.55-14.54,13.57-7.61,.64-10.96-3.25-8.9-10.33,.42-1.43,.94-2.82,1.47-4.21Z"/><path class="cls-11" d="M290.23,137.62c1.53-5.48,5.41-8.84,9.96-11.56,.51,.41,.91,.56,.94,.77,.51,3.23,.17,7.11,3.9,8.52,3.84,1.45,6.82-1.33,9.2-3.71,5.05-5.03,9.65-10.51,14.46-15.78,4.53-4.96,8.91-10.13,16.56-12.78-2.98,10.75-7.18,20.18-8.21,32.01,4.63-7.63,8.49-14.04,13.29-19.77,3.74-4.46,7.49-8.97,12.9-11.52,1.56-.74,3.52-1.75,5.06,.05,1.59,1.87,1.23,4.05,.14,6.02-.75,1.34-1.36,3.33-3.2,.37-.83-1.33-3.37-.82-4.88,.64-10.72,10.37-18.49,22.53-22.2,37.07-.83,3.23-.53,3.31-3.16,3.91-6.09-5.63-7.3-12.54-5.51-20.33,.55-2.38,.99-4.78,1.85-7.07-.56-1.78,2.26-3.13,.29-5.27-1.58,.6-2.15,2.35-3.06,3.72-5.66,8.58-10.97,17.42-18.16,24.87-2.04,2.11-4.06,4.38-7.28,4.74-9.95-.28-12.39-3.1-12.9-14.9Z"/><path class="cls-57" d="M394.02,169.87c-2.18-2.26-5.21-1.79-7.53-1.03-9.92,3.24-18.01,9.05-23.32,18.29-2.03,4.16-4.3,8.19-6,12.51-3.91,9.99-.77,15.54,9.5,16.64,0,0,0,.01,.01,0,.02,.01,.03,.01,.05,.01,.15,0,.29,.15,.44,.23,7.45-1.78,13.2-6.15,18.11-11.82,.32-4-2.09-2.71-4.13-2.14-2.99,.3-6.63,.85-7.51-2.75-.72-2.93-2.21-6.73,1.51-9.26,.58-1.23,.87-1.41,1.51-.93,1.45,1.08,2.97,1.82,4.81,1.01,7.16-1.95,11.18-6.84,13.11-13.8,.68-2.45,1.47-4.85-.56-6.96Zm-13.24,15.46c-1.47,.23-2.64-.4-3.28-1.58-.46-.85-.18-1.88,.53-2.72,2.57-3.05,5.14-6.1,9.15-7.37,2.52,.26,3.48,1.4,2.12,3.81-.77,1.37-1.56,2.73-2.35,4.09-1.85,1.59-3.58,3.38-6.17,3.77Z"/><path class="cls-11" d="M279.36,111.74c4.81-6.93,12.42-8.94,19.88-11.04,3.97-1.12,8.13-2.02,12.58,.61-16.21,10.37-20.07,29.57-31.58,43.31-3.41,4.07-6.68,8.32-12.16,9.81-1.87-.82-3.9,0-5.81-.61-5.65-1.77-8.73-7.84-7.36-14.77,.21-1.09,1.16-2.04,.56-3.27,1.5-4.14,3.56-7.8,7.94-9.47,1.08,.92,.64,1.96,.77,2.88,.76,5.54,4.8,7.8,9.69,5.1,5.95-3.29,10.06-8.68,14.43-13.67,5.69-6.5,11.49-12.86,18.75-18.54-6.2,.58-11.79,1.35-16.94,4.01-5.86,3.03-6.75,4.79-5.57,11.31,.24,1.31-.28,1.83-1.37,2.12-4.7-.93-4.89-4.04-3.78-7.79Z"/><path class="cls-61" d="M255.02,188.41c-1.31,3.93-4.08,6.44-7.8,8.02-4.13,.12-6.77-1.27-6.08-6.02,1.75-3.32,5.8-.33,7.84-2.86,2.17-4.73,1.69-5.78-2.75-6.14-10.32,2.3-14.59,10.72-19.21,18.86-3.78,6.66-7.72,13.24-11.72,19.77-1.84,3.01-10.07,5.08-12.95,3.37-2.09-1.24-.49-2.51,.22-3.67,4.31-6.98,8.53-14.02,13.02-20.87,1.79-2.74,2.74-6.02,5.28-8.27,2.52-2.35,2.64-5.38,2.32-8.5-.13-1.26-.88-2.49-.06-3.76,.09-1.28,.95-1.66,2.05-1.77q7.17-2.12,10.13,3.97c3.38-.22,5.15-3.28,8.05-4.51,9.76-4.15,12.26-.45,13.64,6.37-1.56,1.71,.17,4.5-1.98,6.01Z"/><path class="cls-43" d="M198.26,315.43c-6.68-1.55-13.36-1.18-20.04-.04-.19-.67-2.52-2.25,.3-1.75,6.48,1.17,8.08-2.04,8.48-7.66,.4-5.67,.35-11.31-.97-16.75-.78-3.19-4.57-4-7.1-5.75-2.41-1.68-5.3-2.66-6.92-5.42-1.91-3.24-2.71-6.36-1.92-10.3,1.35-6.77,3.64-12.93,8.07-18.25,6.67,.17,13.35-.03,20.02,.11,5.83,6.59,8.59,14.46,8.38,23.06-.16,6.34-5.74,9.28-10.48,11.55-5.34,2.56-7.48,5.79-6.9,11.57,.43,4.28,.29,8.65,.03,12.95-.22,3.64,.92,5.33,4.74,4.81,1.47-.2,3.06-.33,4.47,.03,2.13,.55-.24,1.18-.15,1.82Z"/><path class="cls-58" d="M376.18,305.35c-4.01,.02-8.02,.03-12.03,.05-.2-.68-2.55-1.99,.42-1.77,3.8,.28,4.48-2.09,4.52-5.02,.06-5,.03-9.99,.05-14.99,.01-3.51-1.54-6.41-4.63-7.69-13.28-5.47-14.81-12.6-10.01-26.03,1.34-3.74,2.69-7.48,5.74-10.28,6.6,1.55,13.21,1.49,19.82,.05,5.68,6.07,8.03,13.66,8.98,21.58,.84,7.03-4.63,10.63-9.83,12.96-6.16,2.76-8.53,6.81-8.01,13.18,.15,1.82,.09,3.66,0,5.49-.23,4.93-.02,9.65,4.99,12.47Z"/><path class="cls-51" d="M259.17,200.23c5.2-7.99,10.32-16.03,15.64-23.93,2.1-3.12,9.88-5.07,13.15-3.49,2.25,1.09,1.14,2.38,.11,3.91-5.74,8.56-11.34,17.2-16.99,25.82-1.17,2.04-1.48,4.06,.21,6l2.86-.02c2.17-.85,3.94-1.12,3.2,2.22-3.72,5.87-9.96,7.67-15.94,9.9-7.3,.86-10.34-2.76-7.87-9.46,1.42-3.87,3.49-7.43,5.64-10.95Z"/><path class="cls-26" d="M301.16,173.65c3.2-2.03,6.25-5.35,10.21-1.26,1.01,3.72,1.37,7.55,2.01,11.34-8.3,9.94-13.73,21.68-20.44,32.61-2.16,3.52-9.96,5.7-13.37,4.02-2.42-1.19-.39-2.74,.14-3.65,3.98-6.84,8.06-13.62,12.37-20.25,.84-1.3,.65-3.42,2.68-3.91,3.83-4.52,6.92-9.3,5.47-15.68-.27-1.2,.11-2.3,.94-3.22Z"/><path class="cls-17" d="M276.19,18.61c.79-1.06,1.42-2.32,2.42-3.13,2.08-1.68,4.12-4.77,7.17-2.73,2.85,1.91,1.56,5.26,.73,7.79-1.7,5.27-4.23,10.13-9.21,13.19-3.55-2.56-4.41-6.21-2.4-11.02,.56-1.35,1.31-2.6,1.29-4.12Z"/><path class="cls-20" d="M163.41,175.54c-.49,5.22-3.59,9.48-5.32,14.25-4.16,11.5-1.49,24.55,6.6,30.75,4.06,3.12,9.14,2.17,13.51,3.9-16.95,4.2-26.23-11.13-24.26-24.71,1.28-8.85,4.39-16.88,9.48-24.19Z"/><path class="cls-12" d="M185.3,90.56c-.31-1.01-1.58-1.99-.19-3.06,1.14-.87,1.81,.28,2.51,.81,5.62,4.27,10.56,9.46,17.31,12.16,7.08,2.83,14.15,5.37,21.98,3.31,1.33-.35,2.97-.69,4.19,.63-16.19,5.81-29.41-.36-41.68-10.34-1.4-1.14-2.75-2.34-4.12-3.51Z"/><path class="cls-40" d="M142.28,75.64c1.18,3.17-1.37,5.41-2.08,8.1-2.17,8.13-3.33,16.19,1.17,23.9,3.88,6.65,9.5,9.08,17.14,7.69,1.26-.23,2.47-1.14,3.67,.1-10.08,3.87-16.6,3.1-21.62-3.07-4.04-4.97-5.11-11.06-4.72-17.26,.44-6.99,2.44-13.59,6.46-19.46Z"/><path class="cls-75" d="M33.36,126.58c6.34-4.66,13.28-2.43,19.9-1.34,10.58,1.76,21.05,3.84,31.88,3.5,3.46-.11,6.41-2.85,9.97-1.42-9.86,4.84-20.23,3.76-30.6,2.57-7.36-.84-14.45-3.53-21.98-3.17-3.04-1.12-6.12,.04-9.18-.14Z"/><path class="cls-78" d="M185.27,186.56c4.14-5.11,9.5-6.92,15.91-5.87,.53,1.02-.08,1.62-.81,2.17-1.01,.2-2.09-.14-3.07,.36-6.17,1.94-6.71,8.05-5.81,13.38,.3,1.81,.71,3.05-1.05,4.07-7.32-1.42-9.02-6.05-5.18-14.12Z"/><path class="cls-10" d="M290.39,55.73c.59,4.03-2.34,6.92-3.44,10.41-2.05,6.54-3.92,13-1.88,19.93,1.7,5.79,3.91,7.35,10.08,6.75,1.45-.14,3.01-.62,4.16,.83-1.05,.97-2.41,.95-3.71,1.2-9.03,1.73-13.91-2.04-14.37-11.35-.44-8.93,3.73-16.58,7.15-24.42,.52-1.19,1.34-2.25,2.01-3.37Z"/><path class="cls-64" d="M286.39,157.68c2.12-3.16,4.77-5.39,8.87-5.12l-.05-.06c.68,7.08-1.68,12.62-8.2,16.02-4.31-.84-2.85-3.94-2.32-6.42,.32-1.5,1.77-2.69,1.7-4.43Z"/><path class="cls-28" d="M230.22,152.6c-8.25,9.63-18.82,15.21-31.07,17.9-.97-1.35-2.45-1.66-3.95-1.92,.05-.43,.15-.8,.29-1.11,.77-1.8,2.81-1.72,4.51-2.13,9.61-2.33,18.82-5.47,25.94-12.83,.36,.01,.73-.03,1.09-.06,.62-.08,1.23-.15,1.85-.02,.1,.02,.19,.05,.29,.08,.35,.03,.7,.06,1.05,.09Z"/><path class="cls-1" d="M328.14,74.61c.25-4.68-.46-9.43,1-14.02,.33-.68,.67-1.36,1-2.04,1.9,3.13-.2,6.25-.12,9.4,.33,11.92,6.71,17.96,18.5,16.85,.54-.05,1.13,.49,1.7,.76-11.38,4.53-18.73,.89-22.09-10.95Z"/><path class="cls-62" d="M153.24,146.41c-3.31,13.36-1.43,17.5,11.82,24.02,3.76,1.85,1.46,2.22-.22,3.15-.09-3.02-2.77-2.28-4.38-2.87-12.08-4.38-14.78-17.76-7.22-24.3Z"/><path class="cls-8" d="M341.43,42.64c5.62,.06,11.28,.4,16.59-2.06,1.9-.88,3.43-.82,3.07,1.77-.68,4.88-.8,9.9-2.6,14.56-.81,2.09-1.17,.37-1.52-.4,.19-4.59,1.68-9.08,1-14.1-4.08,.09-7.54,3.31-11.73,2.44-1.78-.37-4.17,.64-4.8-2.21Z"/><path class="cls-54" d="M363.16,187.13c-.28,4.1-3.08,7.2-4.43,10.89-1.12,3.05-1.63,5.97-1.57,9.12,.11,5.91,1.77,7.71,7.82,8.49,.75,.1,1.46,.59,2.18,.89-13.31,2.45-14.13-6.46-11.76-15.26,1.35-5.03,3.86-10.15,7.76-14.13Z"/><path class="cls-34" d="M177.23,26.22c-.35,1.24-.62,2.52-1.08,3.72-2.66,7.02-.52,11.48,7.08,14.63-6.43,2.51-9.99,.35-10.28-6.32-.2-4.57,.73-8.78,4.28-12.04Z"/><path class="cls-66" d="M313.37,183.73c-3.89-3.21-1.63-7.51-2.01-11.34,2.97,.88,1.19,3.72,2.35,5.56,2.36-.14,3.42-2.68,5.55-3.28,0,1.36,.83,1.87,2.03,1.99-1.53,3.6-5.29,4.7-7.93,7.06Z"/><path class="cls-13" d="M385.28,204.7c-.27-2.86-2.51-1.91-4.13-2.13,4.92-2.39,7.4-8.18,13.1-9.59-2.73,4.19-4.1,9.31-8.97,11.72Z"/><path class="cls-47" d="M259.17,200.23c-.65,3.81-3.31,6.73-4.48,10.34-2.19,6.71-.63,9.18,6.71,10.07-3.15,1.76-6.02,1.27-8.6-1.15-2.42-2.27-1.53-4.98-.57-7.4,1.7-4.27,3.33-8.66,6.94-11.85Z"/><path class="cls-50" d="M197.31,183.22c.71-1.37,1.78-1.27,2.96-.73,4.45,.41,6.08,3.01,5.04,8.05-.57,5.92-2.44,11.09-8.1,14.08,1.83-3.07,4.05-5.97,5.41-9.23,2.31-5.54,.38-9.47-5.31-12.16Z"/><path class="cls-39" d="M259.25,56.7c-2.93,7.87-7.24,15.03-11.17,22.58-1.64-1.82,.49-2.96,.23-4.35,3.62-6.8,7.24-13.61,10.86-20.41,.63,.7,.62,1.43,.08,2.18Z"/><path class="cls-30" d="M331.34,124.46c-.03,5.41-3.03,10.44-1.47,16.17,1.03,3.79,1.71,7.41,5.32,9.65,.72,.45,.42,1.11-.2,1.57-5.57-2.74-6.89-7.72-6.87-13.31,.02-4.92,.3-9.82,3.21-14.1Z"/><path class="cls-77" d="M276.19,18.61c1.85,1.44,.04,2.65-.29,3.91-1.03,3.95-1.52,7.79,1.4,11.22-4.63,2.79-5.11-.71-5.08-3.72,.04-4.14,1.56-7.99,3.97-11.42Z"/><path class="cls-41" d="M331.15,202.1c-.14,1.15-.19,2.31-.44,3.43-1.63,7.3,.17,9.86,7.86,11.11-3.38,2.16-6.5,.76-8.99-1.35-2.67-2.26-2.78-5.43-1.07-8.56,.85-1.56,.94-3.55,2.63-4.63Z"/><path class="cls-70" d="M185.27,186.56c-1.46,9.55-1.02,10.74,5.18,14.12-3.6,1.59-6.17,.08-7.65-3.08-1.95-4.16-1.08-7.97,2.47-11.04Z"/><path class="cls-76" d="M204.43,386.56c6.1,1.64,6.02,7.35,9.63,11.51-6.28-2.41-7.98-4.54-9.63-11.51Z"/><path class="cls-22" d="M301.16,173.65c2.01,6.56-.38,12.07-4.09,17.28-.6,.84-1.26,1.48-2.32,1.62,2.49-5.31,6.71-10.18,3.68-16.83-.54-1.19,1.34-1.95,2.73-2.07Z"/><path class="cls-30" d="M255.46,135.78c1.33,2.82-.66,5.61,.06,8.54,1.55,6.23,3.87,8.53,10.33,9.31,.76,.09,1.48,.52,2.22,.8-12.65,2.27-16.58-8.48-12.62-18.65Z"/><path class="cls-21" d="M290.23,137.62c1.35,.68,.95,1.94,.99,3.03,.32,7.61,2.64,10.11,10.21,11.06,.59,.08,1.14,.53,1.71,.8-2.64,1.65-5.28-.11-7.92-.02l.05,.06c-4.87-3.9-7.3-8.63-5.04-14.94Z"/><path class="cls-6" d="M380.06,239.68c-3.77,3.72-8.44,1.37-12.68,1.73-2.36,.2-5.43,1.37-7.14-1.77,6.61,.02,13.21,.03,19.82,.05Z"/><path class="cls-68" d="M198.18,249.62c-6.68,1.64-13.35,1.81-20.02-.11,6.68-1.37,13.35-1.56,20.02,.11Z"/><path class="cls-16" d="M242.02,98.89c.32-1.2-.13-2.66,1.64-3.73,1.66,4.36,5.83,5.07,9.59,6.44-4.31,1.46-8.43,2.12-11.23-2.71Z"/><path class="cls-56" d="M205.31,190.54c-.61-3.35-1.16-6.75-5.04-8.05,.31-.6,.61-1.2,.92-1.81,5.75,.57,6.32,1.5,5.99,9.93-.62-.03-1.24-.05-1.86-.08Z"/><path class="cls-71" d="M277.34,210.74c-.11-2.12-1.68-2.13-3.2-2.22,3.11-2.52,6.56-4.35,10.42-5.53-2.05,3.04-3.75,6.25-7.22,7.75Z"/><path class="cls-23" d="M232.12,62.76c2.11,5.42,.32,11.21-3.97,12.87,1.56-3.09,2.15-6.38,2.23-9.81,.03-1.23-.84-3.19,1.74-3.06Z"/><path class="cls-59" d="M367.16,17.38c-1.86,6.04-5.11,11.58-6.36,17.85-.19,.96-1.13,1.03-1.85,.2,1.3-6.67,3.82-12.79,8.22-18.05Z"/><path class="cls-49" d="M70.14,222.75c.6-.77,1.45-2.68,2.2-.73,1.94,5.07,6,4.63,10.05,4.61-5.55,3.41-9.56,2.14-12.25-3.88Z"/><path class="cls-35" d="M286.39,157.68c1.47,1.79-.65,2.88-.85,4.34-.32,2.36-1.27,4.85,1.47,6.51-3.5,1.61-5.08,.8-4.58-2.56,.46-3.11,1.85-5.9,3.95-8.28Z"/><path class="cls-73" d="M259.25,56.7l-.08-2.18c2.36-4.55,3.01-10.15,8.02-13.08-2.5,5.16-4.65,10.51-7.94,15.26Z"/><path class="cls-44" d="M223.13,178.32c1.98,4.59,2.33,8.88-2.26,12.26,1.19-3.11,2.1-6.21,.58-9.53-.68-1.48-.07-2.55,1.68-2.73Z"/><path class="cls-18" d="M241.14,190.41c.97,3.07,2.57,5.51,6.08,6.02-2.6,1.1-5.13,1.44-6.91-1.31-1.08-1.67-1.99-3.59,.82-4.72Z"/><path class="cls-5" d="M304.23,60.59c-.67-2.11-1.39-4.47,2.2-2.36,2.28,1.34,4.67,1.38,7.12,1.45-2.93,2.09-6,2.8-9.33,.92Z"/><path class="cls-19" d="M235.32,180.53c-.16-.01-.45,.03-.48-.04-1.91-4.53-5.54-4.81-9.65-3.93,5.96-3.92,9.45-2.55,10.13,3.97Z"/><path class="cls-33" d="M246.23,181.4c1.06-3.01,2.76-1.79,3.87-.29,1.74,2.34,2.17,4.8-1.12,6.43,.53-2.7,.14-4.98-2.75-6.14Z"/><path class="cls-46" d="M165.26,160.6c-2.94-2.8-2.91-7.39,.06-9.91-.02,3.3-.04,6.61-.06,9.91Z"/><path class="cls-60" d="M359.09,180.53c.06-2.66,.12-5.32,.18-7.98,2.87,2.73,3.39,5.4-.18,7.98Z"/><path class="cls-67" d="M279.36,111.74c-.18,3.3,.48,6.18,3.78,7.79-5.44-.37-6.34-2.22-3.78-7.79Z"/><path class="cls-55" d="M375.15,190.55v-3.54c2.09,2.02,3.85,3.55,6.32,3.62-2.13,1.85-4.23,1.11-6.32-.08Z"/><path class="cls-48" d="M271.29,208.54c-3.44-1.89-2.81-3.91-.2-6,.07,2,.14,4,.2,6Z"/><path class="cls-72" d="M255.02,188.41c.79-1.96-1.05-4.79,1.98-6.01-.54,2.04,2.14,5.15-1.98,6.01Z"/><path class="cls-4" d="M104.06,43.99c-.26-2.4-1.76-4.37-3.71-5.97-.72-.6-1.48-1.2-2.28-1.67t-.02-.01c-1.22-.69-2.52-1.05-3.93-.51-.53,.21-1.08,.54-1.64,1.02-.01,.01-.02,.02-.03,.04h0c-1.69,.62-3.38,1.24-5.08,1.84-4.96,1.75-8.42,5-10.27,9.98-1.16,3.13-.77,5.8,2.7,6.7,3.07,.79,2.72,2.32,1.63,4.29-2.86,5.14-6.57,9.45-12.15,11.81-3.06,.52-5.88,.4-8.4-.57-1.91-.71-3.64-1.92-5.16-3.69-.3-.34-.58-.7-.86-1.08-4.34,13.6-8.09,27.33-9.79,41.55,.3,.29,.58,.45,.85,.51,.58,.13,1.13-.2,1.74-.67,11.98-9.43,23.64-19.24,34.76-29.66,6.44-6.03,11.45-13.29,16.74-20.29,2.5-3.21,3.69-7.02,4.69-10.87,.26-.97,.32-1.89,.22-2.75Zm-5.48,13.23c-.77,.34-1.45,.81-1.92,1.51-6.67,9.77-14.51,18.42-23.59,26.06-8.84,7.44-17.46,15.13-26.75,21.99t0-.02c2.09-13.21,5.47-26.13,9.26-38.95,2.54,5.14,5.88,6.3,12.13,4.25,.48,.02,.97,.07,1.45,.16,6.67-1.47,10.16-6.54,13.22-11.94,1.25-2.22,1.02-4.54-1.65-5.94-2.75-1.44-3.19-3.58-1.93-6.29,1.77-3.82,4.62-6.37,8.54-7.93,1.86-.74,4.38-.66,5.12-3.23,8.21,.16,11.77,4.65,9.64,12.39-.57,2.1-1.37,4.13-2.14,6.17-.42,.61-.89,1.2-1.39,1.77Z"/><path class="cls-25" d="M69.27,71.51c-.54,.2-1.06,.39-1.55,.55-6.25,2.05-9.59,.89-12.13-4.25-.26-.5-.5-1.05-.74-1.64,.7-5.09,2.62-9.72,5.31-14.05,.19,.46,.29,.89,.31,1.3,.15,2.17-1.65,3.84-2.24,5.81-2.15,7.21,.39,11.06,7.88,11.41,1.12,.06,2.32-.21,3.16,.87Z"/><path class="cls-69" d="M169.26,75.71c-2.91-2.5-6.06-4.55-9.96-5.15,4.47-.78,8.08,1.08,9.96,5.15Z"/><path class="cls-7" d="M169.26,75.71c-2.91-2.5-6.06-4.55-9.96-5.15-1.04-1.41-2.82-.58-4.11-1.33,4.76-1.98,12.27-.25,15.57,3.43,2.2,2.45,.92,2.97-1.5,3.05Z"/><path class="cls-52" d="M104.75,47.52c-1.32,3.63-2,7.7-5.6,10.09,.26-.72,.53-1.44,.82-2.16,.77-2.04,1.57-4.07,2.14-6.17,2.13-7.74-1.43-12.23-9.64-12.39h-.03c-.78-.19-1.55-.39-2.86-.72,4.9-2.61,9.3-1.95,12.86,.86,3.22,2.52,3.71,6.62,2.31,10.49Z"/><path class="cls-53" d="M227.91,149.69c-.13,.77-.43,1.69-.88,2.76,.56-3.17,.06-5.66-3.61-6.09,.01,.04,.02,.09,.03,.13-.5,.73-1.25,1.11-2.08,1.15-12.21,.61-19.75,8.79-27.42,16.79-2.44,2.54-.61,2.82,1.5,3.03,.01,0,.03,.01,.04,.01,.77-1.8,2.81-1.72,4.51-2.13,9.61-2.33,18.82-5.47,25.94-12.83,.36,.01,.73-.03,1.09-.06-6.54,8.97-16.52,11.52-26.45,14.04-1.46,.37-2.96,.51-4.24,1.23-.4,.22-.78,.5-1.14,.86-1.6-.43-3.8,1.05-4.8-1.19-1.16-2.6,1.77-2.58,2.76-3.79,5.77-7.03,12.48-12.76,21.13-16.09,2.92-1.13,5.86-.65,8.75-1.19,.12-.01,.24-.02,.36-.02,1.14-.08,2.06-.03,2.77,.16,1.51,.4,2.06,1.42,1.74,3.23Z"/><path class="cls-37" d="M229.17,152.51h0c-.07,.04-.13,.08-.2,.11-.66,.38-1.32,.88-1.94-.17,.56-3.17,.06-5.66-3.61-6.09-.12-.02-.25-.03-.38-.04-.81-.33-1.63-.67-2.35-.95-.06-.02-.12-.05-.18-.07,6.93-1.84,8.86-.26,8.66,7.21Z"/><path class="cls-14" d="M63.15,208.5c.05,2.36,.1,4.72,.15,7.07-1.29-2.33-1.4-4.69-.15-7.07Z"/><path class="cls-14" d="M85.2,195.63c-.76-3.26,2.84-8.44-3.96-9.06,5.23-.25,6.42,2.46,3.96,9.06Z"/><path class="cls-31" d="M85.2,195.63c-.76-3.26,2.84-8.44-3.96-9.06,2.24-1.6,4.37-1.66,5.8,.93,1.25,2.26,.03,6.94-1.84,8.13Z"/><path class="cls-32" d="M63.3,215.57c-2.8-2.3-3.28-4.65-.15-7.07,.05,2.36,.1,4.72,.15,7.07Z"/><path class="cls-2" d="M372.91,25.65c.5-3.02,2.59-5.65,2.2-8.89,2.16,3.68-1.35,5.96-2.2,8.89Z"/><path class="cls-65" d="M377.16,16.47c-.21,3.6-1.64,6.68-4.25,9.18,.5-3.02,2.59-5.65,2.2-8.89,.18-.91-.34-2.39,.88-2.52,1.37-.15,1.22,1.32,1.17,2.23Z"/><path class="cls-3" d="M320.69,42.62c.23-1.41,1.07-2.89-.49-4.08,2.65,1.05,2.5,2.45,.49,4.08Z"/><path class="cls-29" d="M320.69,42.62c.23-1.41,1.07-2.89-.49-4.08,.03-.7-2.27-1.03-.47-1.85,.9-.4,2.9-1.73,3.22,.26,.31,1.99,1.83,5.16-2.26,5.67Z"/><path class="cls-63" d="M390.34,176.87c-.51,1.94-2.12,3.22-3.39,4.69,.79-1.36,1.58-2.72,2.35-4.09,1.36-2.41,.4-3.55-2.12-3.81,3.12-.97,3.87,.54,3.16,3.21Z"/><path class="cls-42" d="M391.12,177.64c-.94,1.71-2.23,3.2-4.17,3.92,.79-1.36,1.58-2.72,2.35-4.09,1.36-2.41,.4-3.55-2.12-3.81,1.28-1.54,3.03-1.56,4.3-.47,1.53,1.33,.4,3.07-.36,4.45Z"/><path class="cls-27" d="M205,269.83c-.7,9.96-9.51,11.61-16.06,15.43-2.14,1.25-3.93-1.13-5.76-2.08-4.1-2.14-8.28-4.19-10.7-8.49-.99-1.76-2.06-3.41-.28-5.27,10.37-.03,20.74,.61,31.1-.32,.7-.06,1.29,.14,1.7,.74Z"/><path class="cls-9" d="M205,269.83c-8.49,.97-17.02,.98-25.55,.71-2.47-.08-4.93-.15-7.25-1.13,5.42-1.71,11.08-1.31,16.53-1.02,5.4,.28,11.08-1.35,16.27,1.44Z"/><path class="cls-27" d="M387.1,260.65c.16,3.87-1.71,6.74-4.75,8.76-3.17,2.11-6.5,3.99-9.86,5.78-.94,.5-2.51,.84-3.32,.4-5.67-3.15-12.53-4.88-15.05-11.99-.63-1.75-.83-3.52,1.7-3.46,10.43,.23,20.89-.99,31.29,.51Z"/><path class="cls-36" d="M387.1,260.65c-9.95,.24-19.9,1.72-29.83-.06-2.48-.45-3.33,.72-3.15,3.01-1.48-2.09-1.6-3.69,1.5-4.1,10.2-1.36,20.4-1.37,30.59,.15,.34,.05,.6,.65,.9,1Z"/></svg>